<svg width="532" height="459" fill="none" xmlns="http://www.w3.org/2000/svg"><g clip-path="url(#clip0)"><path d="M290.386 127.827c27.054 0 48.986-21.926 48.986-48.973s-21.932-48.973-48.986-48.973-48.985 21.926-48.985 48.973 21.931 48.973 48.985 48.973z" fill="#F1A7B1"/><path d="M253.824 103.34s9.23 69.556-4.969 77.363c-14.199 7.807 84.482 8.517 84.482 8.517s-22.008-60.329-12.069-78.782l-67.444-7.098z" fill="#F1A7B1"/><path d="M405.395 189.572l-8.207 37.361-17.353 79.043-.52 4.329-5.988 50.114-3.984 33.292-2.671 22.363c-16.241 8.345-28.011 14.105-28.011 14.105s-1.013-5.074-2.645-11.568c-11.398 3.417-32.488 9.084-50.36 10.216 6.508 7.253 9.499 14.066 5.442 19.094-12.244 15.157-62.791-16.596-80.47-28.437a47.73 47.73 0 00-.466 8.564l-13.53-10.402 1.339-23.935 2.258-40.498 2.838-50.786a53.258 53.258 0 01-2.245-6.68c-4.143-14.731-9.173-44.147-13.029-68.814a2401.44 2401.44 0 01-5.929-40.198l-.1-.706 74.894-33.086c5.323 12.341 30.177 16.05 30.177 16.05 20.59-1.418 36.731-12.273 36.731-12.273l81.829 32.852z" fill="#D0CDE1"/><path d="M344.343 415.988s-3.171 1.085-8.327 2.623c-11.398 3.417-32.488 9.084-50.36 10.216-15.388.986-28.391-1.385-30.769-11.421-1.02-4.315.426-7.865 3.577-10.782 9.406-8.718 33.973-11.841 53.458-12.913 5.502-.3 10.591-.44 14.828-.493 7.194-.093 11.911.053 11.911.053l.113.44 5.569 22.277z" fill="#F1A7B1"/><path d="M249.635 32.53l-9.159-3.666s19.15-21.078 45.795-19.245l-7.494-8.248s18.318-7.332 34.971 11.914c8.754 10.117 18.883 22.009 25.197 35.405h9.809l-4.094 9.01 14.328 9.012-14.706-1.618a50.349 50.349 0 01.399 14.947 19.34 19.34 0 01-7.084 12.652s-11.359-23.506-11.359-27.172v9.165s-9.159-8.248-9.159-13.747l-4.996 6.416-2.498-10.081-30.808 10.08 4.996-8.248-19.151 2.75 7.494-10.081S250.468 63.69 249.635 73.77c-.833 10.08-7.169 19.633-7.169 19.633s-16.978-47.127 7.169-60.874z" fill="#2F2E41"/><path d="M458.64 361.332c-4.99 5.407-17.353 13.552-32.341 22.369a810.27 810.27 0 01-17.567 10.01c-14.448 8.011-29.576 15.95-42.06 22.363-16.241 8.345-28.011 14.105-28.011 14.105s-1.013-5.074-2.645-11.568c-2.185-8.691-5.476-19.925-8.906-24.9-.12-.173-.24-.333-.36-.493-.999-1.312-2.005-2.078-2.998-2.078l49.575-30.721 21.423-13.279-15.435-36.835-19.358-46.205 11.684-37.167 11.745-37.361h22.009s7.288 15.903 16.607 38.08c1.392 3.316 2.831 6.773 4.297 10.342 19.171 46.618 43.072 111.716 32.341 123.338z" fill="#D0CDE1"/><path d="M291.098 447.921c-12.244 15.157-62.791-16.596-80.47-28.437a290.454 290.454 0 01-6.142-4.209l16.174-21.564 5.123-6.826s4.583 2.43 11.357 6.386c.247.147.493.293.746.44 5.843 3.43 13.177 7.912 20.578 12.913 10.212 6.906 20.537 14.784 27.192 22.203 6.508 7.253 9.499 14.066 5.442 19.094z" fill="#F1A7B1"/><path d="M237.141 393.271a31.777 31.777 0 00-5.396.44c-15.315 2.63-19.831 16.489-21.117 25.773a47.73 47.73 0 00-.466 8.564l-13.53-10.402-4.929-3.79c-11.864-4.135-22.436-11.481-31.602-20.145a158.75 158.75 0 01-21.283-25.234 222.422 222.422 0 01-16.467-28.237 20.769 20.769 0 01-.287-17.615l16.754-37.327 24.487-54.556c.18-1.299.378-2.568.593-3.809 4.856-27.838 17.866-40.198 17.866-40.198h9.939l6.648 40.198 8.26 49.94-5.789 18.874-13.376 43.588 12.784 13.878 36.911 40.058z" fill="#D0CDE1"/><path d="M248.389 276.913l8.497 9.91a242.976 242.976 0 009.848-2.102l-2.44-7.808 5.967 6.96c35.97-8.845 80.554-26.04 80.554-26.04s-48.133 3.528-84.072-4.321c-15.902-3.474-32.262 4.407-38.787 19.314-3.793 8.665-3.197 16.172 10.254 16.172a88.94 88.94 0 0013.558-1.275l-3.379-10.81z" fill="#6366F1"/><path d="M442.086 439.796v4.042a8.887 8.887 0 01-.606 3.244c-.179.46-.395.906-.646 1.331a8.949 8.949 0 01-7.694 4.369H135.674a8.947 8.947 0 01-7.694-4.369 9.028 9.028 0 01-.646-1.331 8.888 8.888 0 01-.607-3.244v-4.042a8.934 8.934 0 012.62-6.325 8.931 8.931 0 016.327-2.619h17.146v-1.885c0-.049.01-.097.028-.143a.395.395 0 01.081-.121.395.395 0 01.121-.081.391.391 0 01.143-.028h8.946a.373.373 0 01.374.373v1.885h5.588v-1.885a.373.373 0 01.373-.373h8.947c.049 0 .097.01.143.028a.395.395 0 01.121.081.395.395 0 01.081.121.391.391 0 01.028.143v1.885h5.595v-1.885a.373.373 0 01.373-.373h8.947c.049 0 .097.01.143.028a.395.395 0 01.121.081.395.395 0 01.081.121.391.391 0 01.028.143v1.885h5.589v-1.885a.372.372 0 01.373-.373h8.946c.049 0 .098.01.143.028a.378.378 0 01.23.345v1.885h5.589v-1.885c0-.049.01-.097.028-.143a.395.395 0 01.081-.121.395.395 0 01.121-.081.391.391 0 01.143-.028h8.946a.373.373 0 01.373.373v1.885h5.596v-1.885a.378.378 0 01.23-.345.391.391 0 01.143-.028h8.946a.373.373 0 01.373.373v1.885h5.589v-1.885a.373.373 0 01.373-.373h70.079c.049 0 .097.01.143.028a.375.375 0 01.23.345v1.885h5.595v-1.885a.373.373 0 01.373-.373h8.947a.375.375 0 01.262.111c.07.069.11.164.111.262v1.885h5.589v-1.885a.372.372 0 01.373-.373h8.946c.049 0 .098.01.143.028a.378.378 0 01.23.345v1.885h5.589v-1.885a.378.378 0 01.23-.345.391.391 0 01.143-.028h8.946a.373.373 0 01.373.373v1.885h5.596v-1.885a.378.378 0 01.23-.345.387.387 0 01.143-.028h8.946a.372.372 0 01.367.373v1.885h5.595v-1.885a.373.373 0 01.373-.373h8.947c.049 0 .097.01.143.028a.375.375 0 01.23.345v1.885h5.589v-1.885a.372.372 0 01.373-.373h8.946c.049 0 .098.01.143.028a.378.378 0 01.23.345v1.885h26.093a8.96 8.96 0 016.327 2.619 8.948 8.948 0 012.619 6.325z" fill="#3F3D56"/><path d="M528.584 447.082H40.302v1.331h488.282v-1.331zm-110.45-177.527H307.259v-2.285h-50.274v2.285H145.653a7.498 7.498 0 00-7.5 7.498v151.781a7.498 7.498 0 007.5 7.498h272.481a7.5 7.5 0 007.5-7.498V277.053a7.498 7.498 0 00-7.5-7.498z" fill="#3F3D56"/><path d="M282.112 339.195c9.197 0 16.653-7.454 16.653-16.649 0-9.196-7.456-16.65-16.653-16.65-9.198 0-16.654 7.454-16.654 16.65 0 9.195 7.456 16.649 16.654 16.649z" stroke="#D0CDE1" stroke-width="2" stroke-miterlimit="10"/><path d="M276.783 345.188c9.197 0 16.653-7.454 16.653-16.649s-7.456-16.649-16.653-16.649c-9.198 0-16.654 7.454-16.654 16.649s7.456 16.649 16.654 16.649zM72.24 440.353H53.59V459h18.65v-18.647z" fill="#D0CDE1"/><path d="M60.919 425.702v22.643h22.649v-22.643h-22.65zm21.663 21.657H61.898v-20.671h20.684v20.671z" fill="#3F3D56"/><path d="M503.901 440.353h-18.652V459h18.652v-18.647z" fill="#D0CDE1"/><path d="M492.58 425.702v22.643h22.648v-22.643H492.58zm21.663 21.657h-20.684v-20.671h20.684v20.671z" fill="#3F3D56"/><path d="M63.004 153.248c29.19 0 52.852-23.656 52.852-52.838 0-29.182-23.663-52.838-52.852-52.838-29.19 0-52.852 23.656-52.852 52.838 0 29.182 23.663 52.838 52.852 52.838z" fill="#6366F1"/><path d="M81.422 37.62a57.145 57.145 0 00-14.414 0A56.21 56.21 0 0038.09 50.379a56.187 56.187 0 00-17.457 26.343A55.415 55.415 0 0018.2 91.147a58.45 58.45 0 00-.04 2.058 56.09 56.09 0 0016.434 39.61 56.12 56.12 0 0039.62 16.43c1.194 0 2.387-.04 3.564-.112a56.064 56.064 0 0040.76-21.621 56.037 56.037 0 00-2.99-72.167A56.064 56.064 0 0081.422 37.62zM91.76 144.746h-.008a53.926 53.926 0 01-13.974 2.778c-1.177.08-2.37.12-3.563.12A54.531 54.531 0 0135.73 131.68a54.502 54.502 0 01-15.97-38.475A54.507 54.507 0 0136.465 54.01a54.535 54.535 0 0137.75-15.246 54.466 54.466 0 0135.221 12.923 54.432 54.432 0 0111.502 69.48 54.452 54.452 0 01-29.178 23.578z" fill="#3F3D56"/><path d="M75.016 41.968h-1.602v11.208h1.602V41.968zM38.542 56.409l-1.133 1.132 7.928 7.925 1.132-1.132-7.927-7.925zM22.964 92.404v1.601h11.211v-1.6h-11.21zm14.445 36.465l1.133 1.132 7.927-7.926-1.133-1.132-7.927 7.926zm64.552-64.535l1.132 1.132 7.928-7.925-1.133-1.132-7.927 7.925zm12.293 28.07v1.601h11.211v-1.6h-11.211zm-11.161 28.539l-1.132 1.132 7.927 7.926 1.133-1.132-7.928-7.926zm-28.077 12.291h-1.602v11.208h1.602v-11.208zm1.601-43.232a4.004 4.004 0 10-3.763 6.968 4.005 4.005 0 005.11-5.17 4.004 4.004 0 00-1.347-1.798zm-2.402 5.604a2.41 2.41 0 01-2.403-2.401 2.4 2.4 0 112.402 2.402zm7.207-72.052H67.008v14.41h14.414v-14.41z" fill="#3F3D56"/><path d="M74.215 25.956c10.614 0 19.219-3.047 19.219-6.805 0-3.758-8.605-6.805-19.219-6.805s-19.219 3.047-19.219 6.805c0 3.758 8.605 6.805 19.219 6.805zm2.402 36.827h-4.805v27.22h4.805v-27.22zm73.931 84.023H0v1.601h150.548v-1.601z" fill="#3F3D56"/><path d="M100.317 399.417c.622 21.277-11.814 29.075-27.42 29.531-.363.01-.724.017-1.083.019-.724.006-1.44-.006-2.15-.036-14.115-.586-25.287-8.076-25.865-27.864-.599-20.478 24.826-47.086 26.734-49.054l.003-.002.11-.113s29.05 26.243 29.671 47.519z" fill="#D0CDE1"/><path d="M71.773 425.723l9.914-14.739-9.894 16.325.02 1.658c-.723.006-1.44-.006-2.15-.036l.492-21.319-.013-.164.018-.032.047-2.014-10.857-15.759 10.844 14.251.039.426.371-16.107-9.377-16.339 9.404 13.509-.098-33.37v-.111l.003.109.623 26.3 8.546-10.683-8.519 12.949.187 14.407 7.864-14.061-7.835 16.18.104 8.011 11.437-19.587-11.402 22.382.232 17.814z" fill="#3F3D56"/><path d="M531.978 399.417c.621 21.277-11.814 29.075-27.421 29.531-.362.01-.723.017-1.083.019-.723.006-1.44-.006-2.15-.036-14.114-.586-25.287-8.076-25.865-27.864-.598-20.478 24.827-47.086 26.734-49.054l.004-.002.109-.113s29.05 26.243 29.672 47.519z" fill="#D0CDE1"/><path d="M503.433 425.723l9.914-14.739-9.893 16.325.02 1.658c-.723.006-1.44-.006-2.15-.036l.492-21.319-.013-.164.018-.032.047-2.014-10.857-15.759 10.844 14.251.038.426.372-16.107-9.378-16.339 9.404 13.509-.098-33.37.001-.111.003.109.622 26.3 8.546-10.683-8.518 12.949.187 14.407 7.864-14.061-7.835 16.18.103 8.011 11.437-19.587-11.402 22.382.232 17.814z" fill="#3F3D56"/></g><defs><clipPath id="clip0"><path fill="#fff" d="M0 0h532v459H0z"/></clipPath></defs></svg>